<svg width="1080" height="1080" viewBox="0 0 1080 1080" fill="none" xmlns="http://www.w3.org/2000/svg">
<g clip-path="url(#clip0_68_2)">
<path fill-rule="evenodd" clip-rule="evenodd" d="M538.202 861.776L422.731 658.97L374.661 743.495L538.202 1031.07V861.776Z" fill="#D1AD72" stroke="black" stroke-opacity="0.7" stroke-width="6"/>
<path fill-rule="evenodd" clip-rule="evenodd" d="M421.099 656.236L308.879 457.731H212.387L373.236 740.854L421.099 656.236Z" fill="#D1AD72" stroke="black" stroke-opacity="0.7" stroke-width="6"/>
<path fill-rule="evenodd" clip-rule="evenodd" d="M192.073 254.396L306.233 455.176L210.712 455.218L49.8964 170.678L192.073 254.396Z" fill="#D1AD72" stroke="black" stroke-opacity="0.7" stroke-width="6"/>
<path fill-rule="evenodd" clip-rule="evenodd" d="M51.5107 168.08L193.61 250.796H420.777L374.584 168.023L51.5107 168.08Z" fill="#D1AD72" stroke="black" stroke-opacity="0.7" stroke-width="6"/>
<path fill-rule="evenodd" clip-rule="evenodd" d="M377.729 168.013L425.249 250.275L652.927 250.913L701.004 167.992L377.729 168.013Z" fill="#D1AD72" stroke="black" stroke-opacity="0.7" stroke-width="6"/>
<path fill-rule="evenodd" clip-rule="evenodd" d="M885.287 251.129L656.999 251.028L704.379 168.555L1025.77 168.697L885.287 251.129Z" fill="#D1AD72" stroke="black" stroke-opacity="0.7" stroke-width="6"/>
<path fill-rule="evenodd" clip-rule="evenodd" d="M884.004 255.083L770.777 454.928L868.333 454.97L1029.94 169.583L884.004 255.083Z" fill="#D1AD72" stroke="black" stroke-opacity="0.7" stroke-width="6"/>
<path fill-rule="evenodd" clip-rule="evenodd" d="M656.884 654.568L705.938 740.792L866.996 457.635L768.763 457.745L656.884 654.568Z" fill="#D1AD72" stroke="black" stroke-opacity="0.7" stroke-width="6"/>
<path fill-rule="evenodd" clip-rule="evenodd" d="M540.839 860.678L655.259 657.133L704.327 743.97L540.839 1031.81V860.678Z" fill="#D1AD72" stroke="black" stroke-opacity="0.7" stroke-width="6"/>
<path fill-rule="evenodd" clip-rule="evenodd" d="M538.937 703.995L468.311 579.719L425.38 655.72L538.937 855.594V703.995Z" fill="#D1AD72" stroke="black" stroke-opacity="0.7" stroke-width="6"/>
<path fill-rule="evenodd" clip-rule="evenodd" d="M466.943 577.051L399.348 458.208H313.475L423.662 652.853L466.943 577.051Z" fill="#D1AD72" stroke="black" stroke-opacity="0.7" stroke-width="6"/>
<path fill-rule="evenodd" clip-rule="evenodd" d="M397.741 455.397L328.211 333.261L199.321 258.137L311.9 456.213L397.741 455.397Z" fill="#D1AD72" stroke="black" stroke-opacity="0.7" stroke-width="6"/>
<path fill-rule="evenodd" clip-rule="evenodd" d="M202.735 255.616L329.466 330.735L467.765 330.73L424.237 254.759L202.735 255.616Z" fill="#D1AD72" stroke="black" stroke-opacity="0.7" stroke-width="6"/>
<path fill-rule="evenodd" clip-rule="evenodd" d="M471.247 330.649L608.772 330.604L651.834 254.918H427.921L471.247 330.649Z" fill="#D1AD72" stroke="black" stroke-opacity="0.7" stroke-width="6"/>
<path fill-rule="evenodd" clip-rule="evenodd" d="M612.103 330.628L751.047 330.485L879.096 255.101H655.195L612.103 330.628Z" fill="#D1AD72" stroke="black" stroke-opacity="0.7" stroke-width="6"/>
<path fill-rule="evenodd" clip-rule="evenodd" d="M752.234 333.014L682.564 455.525L767.805 455.322L880.078 258.919L752.234 333.014Z" fill="#D1AD72" stroke="black" stroke-opacity="0.7" stroke-width="6"/>
<path fill-rule="evenodd" clip-rule="evenodd" d="M613.553 577.048L655.967 652.031L766.222 458.187L681.052 458.094L613.553 577.048Z" fill="#D1AD72" stroke="black" stroke-opacity="0.7" stroke-width="6"/>
<path fill-rule="evenodd" clip-rule="evenodd" d="M542.281 703.727L611.834 579.755L654.464 654.821L542.281 852.093V703.727Z" fill="#D1AD72" stroke="black" stroke-opacity="0.7" stroke-width="6"/>
<path fill-rule="evenodd" clip-rule="evenodd" d="M537.223 550.079L510.522 503.266L468.63 577.424L537.223 697.646V550.079Z" fill="#D1AD72" stroke="black" stroke-opacity="0.7" stroke-width="6"/>
<path fill-rule="evenodd" clip-rule="evenodd" d="M466.816 574.935L509.177 500.19L485.592 458.589L401.08 458.552L466.816 574.935Z" fill="#D1AD72" stroke="black" stroke-opacity="0.7" stroke-width="6"/>
<path fill-rule="evenodd" clip-rule="evenodd" d="M458.007 410.217L483.805 455.829L399.526 455.866L331.574 336.198L458.007 410.217Z" fill="#D1AD72" stroke="black" stroke-opacity="0.7" stroke-width="6"/>
<path fill-rule="evenodd" clip-rule="evenodd" d="M459.004 407.823L510.007 407.8L468.049 333.958L332.942 334.018L459.004 407.823Z" fill="#D1AD72" stroke="black" stroke-opacity="0.7" stroke-width="6"/>
<path fill-rule="evenodd" clip-rule="evenodd" d="M470.831 334.008L512.905 407.742H563.004L605.26 334.008H470.831Z" fill="#D1AD72" stroke="black" stroke-opacity="0.7" stroke-width="6"/>
<path fill-rule="evenodd" clip-rule="evenodd" d="M618.329 407.937L566.337 407.914L608.51 334.02L744.346 334.08L618.329 407.937Z" fill="#D1AD72" stroke="black" stroke-opacity="0.7" stroke-width="6"/>
<path fill-rule="evenodd" clip-rule="evenodd" d="M618.919 410.567L593.422 455.855L677.742 455.892L745.618 336.271L618.919 410.567Z" fill="#D1AD72" stroke="black" stroke-opacity="0.7" stroke-width="6"/>
<path fill-rule="evenodd" clip-rule="evenodd" d="M610.345 574.838L568.172 500.242L591.742 458.536L676.324 458.499L610.345 574.838Z" fill="#D1AD72" stroke="black" stroke-opacity="0.7" stroke-width="6"/>
<path fill-rule="evenodd" clip-rule="evenodd" d="M540.613 549.925L566.574 503.207L608.265 577.494L540.613 697.162V549.925Z" fill="#D1AD72" stroke="black" stroke-opacity="0.7" stroke-width="6"/>
</g>
<defs>
<clipPath id="clip0_68_2">
<rect width="1080" height="1080" fill="white"/>
</clipPath>
</defs>
</svg>
