<svg width="394" height="346" viewBox="0 0 394 346" fill="none" xmlns="http://www.w3.org/2000/svg">
<path fill-rule="evenodd" clip-rule="evenodd" d="M196.002 287.452L156.24 217.617L139.688 246.723L196.002 345.75V287.452Z" fill="#D1AD72"/>
<path fill-rule="evenodd" clip-rule="evenodd" d="M155.678 216.675L117.035 148.32H83.8086L139.196 245.812L155.678 216.675Z" fill="#D1AD72"/>
<path fill-rule="evenodd" clip-rule="evenodd" d="M76.8143 78.3027L116.125 147.441L83.2324 147.455L27.8562 49.4747L76.8143 78.3027Z" fill="#D1AD72"/>
<path fill-rule="evenodd" clip-rule="evenodd" d="M28.4111 48.5805L77.3425 77.0633H155.567L139.66 48.561L28.4111 48.5805Z" fill="#D1AD72"/>
<path fill-rule="evenodd" clip-rule="evenodd" d="M140.744 48.557L157.108 76.8836L235.508 77.1033L252.063 48.5498L140.744 48.557Z" fill="#D1AD72"/>
<path fill-rule="evenodd" clip-rule="evenodd" d="M315.519 77.1781L236.909 77.1435L253.224 48.7442L363.895 48.793L315.519 77.1781Z" fill="#D1AD72"/>
<path fill-rule="evenodd" clip-rule="evenodd" d="M315.078 78.5396L276.089 147.355L309.682 147.37L365.33 49.0982L315.078 78.5396Z" fill="#D1AD72"/>
<path fill-rule="evenodd" clip-rule="evenodd" d="M236.87 216.101L253.762 245.792L309.222 148.288L275.395 148.325L236.87 216.101Z" fill="#D1AD72"/>
<path fill-rule="evenodd" clip-rule="evenodd" d="M196.91 287.074L236.311 216.984L253.207 246.886L196.91 346.001V287.074Z" fill="#D1AD72"/>
<path fill-rule="evenodd" clip-rule="evenodd" d="M196.256 233.12L171.937 190.326L157.153 216.497L196.256 285.323V233.12Z" fill="#D1AD72"/>
<path fill-rule="evenodd" clip-rule="evenodd" d="M171.464 189.408L148.188 148.484H118.618L156.561 215.51L171.464 189.408Z" fill="#D1AD72"/>
<path fill-rule="evenodd" clip-rule="evenodd" d="M147.636 147.517L123.693 105.459L79.3105 79.5908L118.077 147.798L147.636 147.517Z" fill="#D1AD72"/>
<path fill-rule="evenodd" clip-rule="evenodd" d="M80.4873 78.7219L124.126 104.589L171.749 104.587L156.76 78.4268L80.4873 78.7219Z" fill="#D1AD72"/>
<path fill-rule="evenodd" clip-rule="evenodd" d="M172.946 104.56L220.303 104.544L235.131 78.4819H158.027L172.946 104.56Z" fill="#D1AD72"/>
<path fill-rule="evenodd" clip-rule="evenodd" d="M221.45 104.553L269.295 104.504L313.388 78.5454H236.289L221.45 104.553Z" fill="#D1AD72"/>
<path fill-rule="evenodd" clip-rule="evenodd" d="M269.703 105.374L245.713 147.56L275.065 147.491L313.726 79.8599L269.703 105.374Z" fill="#D1AD72"/>
<path fill-rule="evenodd" clip-rule="evenodd" d="M221.95 189.406L236.555 215.226L274.521 148.477L245.193 148.444L221.95 189.406Z" fill="#D1AD72"/>
<path fill-rule="evenodd" clip-rule="evenodd" d="M197.407 233.028L221.358 190.338L236.037 216.187L197.407 284.117V233.028Z" fill="#D1AD72"/>
<path fill-rule="evenodd" clip-rule="evenodd" d="M195.666 180.12L186.471 164L172.046 189.536L195.666 230.934V180.12Z" fill="#D1AD72"/>
<path fill-rule="evenodd" clip-rule="evenodd" d="M171.42 188.678L186.007 162.94L177.885 148.615L148.784 148.602L171.42 188.678Z" fill="#D1AD72"/>
<path fill-rule="evenodd" clip-rule="evenodd" d="M168.387 131.959L177.271 147.665L148.249 147.678L124.85 106.471L168.387 131.959Z" fill="#D1AD72"/>
<path fill-rule="evenodd" clip-rule="evenodd" d="M168.73 131.134L186.292 131.126L171.844 105.699L125.321 105.719L168.73 131.134Z" fill="#D1AD72"/>
<path fill-rule="evenodd" clip-rule="evenodd" d="M172.804 105.717L187.292 131.107H204.543L219.094 105.717H172.804Z" fill="#D1AD72"/>
<path fill-rule="evenodd" clip-rule="evenodd" d="M223.592 131.174L205.689 131.166L220.211 105.721L266.986 105.741L223.592 131.174Z" fill="#D1AD72"/>
<path fill-rule="evenodd" clip-rule="evenodd" d="M223.797 132.079L215.017 147.674L244.052 147.687L267.425 106.496L223.797 132.079Z" fill="#D1AD72"/>
<path fill-rule="evenodd" clip-rule="evenodd" d="M220.844 188.645L206.322 162.958L214.438 148.597L243.563 148.584L220.844 188.645Z" fill="#D1AD72"/>
<path fill-rule="evenodd" clip-rule="evenodd" d="M196.832 180.066L205.772 163.979L220.128 189.559L196.832 230.766V180.066Z" fill="#D1AD72"/>
</svg>
