<svg width="1080" height="1080" viewBox="0 0 1080 1080" fill="none" xmlns="http://www.w3.org/2000/svg">
<g clip-path="url(#clip0_43_41)">
<path fill-rule="evenodd" clip-rule="evenodd" d="M538.465 769.577L458.847 629.742L425.703 688.022L538.465 886.308V769.577Z" fill="#D1AD72"/>
<path fill-rule="evenodd" clip-rule="evenodd" d="M457.723 627.857L380.347 490.988H313.815L424.721 686.201L457.723 627.857Z" fill="#D1AD72"/>
<path fill-rule="evenodd" clip-rule="evenodd" d="M299.809 350.788L378.522 489.226L312.66 489.255L201.778 293.064L299.809 350.788Z" fill="#D1AD72"/>
<path fill-rule="evenodd" clip-rule="evenodd" d="M202.891 291.273L300.868 348.306H457.5L425.649 291.234L202.891 291.273Z" fill="#D1AD72"/>
<path fill-rule="evenodd" clip-rule="evenodd" d="M427.819 291.227L460.585 347.947L617.569 348.387L650.718 291.213L427.819 291.227Z" fill="#D1AD72"/>
<path fill-rule="evenodd" clip-rule="evenodd" d="M777.78 348.536L620.376 348.467L653.044 291.601L874.644 291.699L777.78 348.536Z" fill="#D1AD72"/>
<path fill-rule="evenodd" clip-rule="evenodd" d="M776.895 351.261L698.825 489.054L766.09 489.084L877.518 292.309L776.895 351.261Z" fill="#D1AD72"/>
<path fill-rule="evenodd" clip-rule="evenodd" d="M620.296 626.707L654.119 686.159L765.168 490.922L697.436 490.998L620.296 626.707Z" fill="#D1AD72"/>
<path fill-rule="evenodd" clip-rule="evenodd" d="M540.282 768.819L619.176 628.475L653.008 688.349L540.282 886.811V768.819Z" fill="#D1AD72"/>
<path fill-rule="evenodd" clip-rule="evenodd" d="M538.972 660.787L490.276 575.099L460.675 627.502L538.972 765.315V660.787Z" fill="#D1AD72"/>
<path fill-rule="evenodd" clip-rule="evenodd" d="M489.332 573.259L442.725 491.316H383.516L459.49 625.524L489.332 573.259Z" fill="#D1AD72"/>
<path fill-rule="evenodd" clip-rule="evenodd" d="M441.618 489.378L393.677 405.165L304.808 353.367L382.431 489.941L441.618 489.378Z" fill="#D1AD72"/>
<path fill-rule="evenodd" clip-rule="evenodd" d="M307.161 351.629L394.542 403.424L489.899 403.42L459.886 351.038L307.161 351.629Z" fill="#D1AD72"/>
<path fill-rule="evenodd" clip-rule="evenodd" d="M492.3 403.364L587.124 403.333L616.815 351.147H462.427L492.3 403.364Z" fill="#D1AD72"/>
<path fill-rule="evenodd" clip-rule="evenodd" d="M589.42 403.349L685.222 403.251L773.512 351.273H619.132L589.42 403.349Z" fill="#D1AD72"/>
<path fill-rule="evenodd" clip-rule="evenodd" d="M686.04 404.995L638.003 489.466L696.776 489.326L774.189 353.906L686.04 404.995Z" fill="#D1AD72"/>
<path fill-rule="evenodd" clip-rule="evenodd" d="M590.42 573.256L619.665 624.957L695.686 491.302L636.961 491.237L590.42 573.256Z" fill="#D1AD72"/>
<path fill-rule="evenodd" clip-rule="evenodd" d="M541.278 660.602L589.235 575.123L618.628 626.881L541.278 762.9V660.602Z" fill="#D1AD72"/>
<path fill-rule="evenodd" clip-rule="evenodd" d="M537.79 554.661L519.38 522.383L490.495 573.515L537.79 656.408V554.661Z" fill="#D1AD72"/>
<path fill-rule="evenodd" clip-rule="evenodd" d="M489.244 571.798L518.452 520.262L502.19 491.578L443.919 491.552L489.244 571.798Z" fill="#D1AD72"/>
<path fill-rule="evenodd" clip-rule="evenodd" d="M483.17 458.225L500.958 489.675L442.847 489.7L395.994 407.19L483.17 458.225Z" fill="#D1AD72"/>
<path fill-rule="evenodd" clip-rule="evenodd" d="M483.858 456.575L519.024 456.559L490.095 405.645L396.939 405.687L483.858 456.575Z" fill="#D1AD72"/>
<path fill-rule="evenodd" clip-rule="evenodd" d="M492.013 405.68L521.023 456.519H555.566L584.701 405.68H492.013Z" fill="#D1AD72"/>
<path fill-rule="evenodd" clip-rule="evenodd" d="M593.712 456.654L557.864 456.638L586.943 405.688L680.601 405.729L593.712 456.654Z" fill="#D1AD72"/>
<path fill-rule="evenodd" clip-rule="evenodd" d="M594.12 458.466L576.539 489.693L634.678 489.718L681.479 407.239L594.12 458.466Z" fill="#D1AD72"/>
<path fill-rule="evenodd" clip-rule="evenodd" d="M588.208 571.731L559.13 520.298L575.382 491.541L633.701 491.516L588.208 571.731Z" fill="#D1AD72"/>
<path fill-rule="evenodd" clip-rule="evenodd" d="M540.127 554.554L558.028 522.342L586.773 573.563L540.127 656.074V554.554Z" fill="#D1AD72"/>
</g>
<defs>
<clipPath id="clip0_43_41">
<rect width="1080" height="1080" fill="white"/>
</clipPath>
</defs>
</svg>
